<?xml version="1.0" encoding="utf-8"?>
<!-- Svg Vector Icons : http://www.sfont.cn -->
<!DOCTYPE svg PUBLIC "-//W3C//DTD SVG 1.1//EN" "http://www.w3.org/Graphics/SVG/1.1/DTD/svg11.dtd">
<svg version="1.1" xmlns="http://www.w3.org/2000/svg" xmlns:xlink="http://www.w3.org/1999/xlink" x="0px" y="0px" viewBox="0 0 1000 1000" enable-background="new 0 0 1000 1000" xml:space="preserve">
<metadata> Svg Vector Icons : http://www.sfont.cn </metadata>
<g><path d="M909.1,990c-38.3,0-39.7-21.9-39.7-48.9l-0.4-4.5c0-1.2,0.2-2.3,0.3-3.4C865.7,756.2,747,598.2,528.7,598.2c-9.2,0.9-18.5,1.4-27.9,1.4c-9.5,0-18.8-0.5-28-1.4c-195.4,0-340.9,161.9-340.9,342.1c0,0,0,0.1,0,0.1h-1v0.6c0,27-6.8,48.9-33.7,48.9c-26.9,0-37.5-21.9-37.5-48.9l-0.5-4.5c0-4.1,0.7-8.1,1.6-11.9c5.7-172.9,110.6-320.3,259.5-387.4c-69.1-53.9-113.7-137.9-113.7-232.5C206.8,142,338.4,10,500.8,10c162.3,0,294,132,294,294.8c0,94.8-44.8,179-114.2,232.9c150,67.8,255.2,217.3,258.9,392.1c0.3,2.2,0.7,4.4,0.7,6.7l0.5,4.5C940.6,968.1,936,990,909.1,990z M724.4,304.1c0-124.3-100.5-225.1-224.4-225.1c-124,0-224.5,100.8-224.5,225.1c0,124.3,100.5,225.1,224.5,225.1C623.9,529.3,724.4,428.5,724.4,304.1z"/></g>
</svg>